<?xml version="1.0" ?><svg height="24px" version="1.1" viewBox="0 0 24 24" width="24px" xmlns="http://www.w3.org/2000/svg" xmlns:sketch="http://www.bohemiancoding.com/sketch/ns" xmlns:xlink="http://www.w3.org/1999/xlink"><title/><desc/><defs/><g fill="none" fill-rule="evenodd" id="miu" stroke="none" stroke-width="1"><g id="Artboard-1" transform="translate(-899.000000, -659.000000)"><g id="slice" transform="translate(215.000000, 119.000000)"/><path d="M911,682 C917.075133,682 922,677.075133 922,671 C922,664.924867 917.075133,660 911,660 C904.924867,660 900,664.924867 900,671 C900,677.075133 904.924867,682 911,682 Z M917,675 L914.56885,675 L914.56885,671.4846 C914.56885,670.564449 914.188558,669.936287 913.352305,669.936287 C912.712665,669.936287 912.35695,670.360184 912.191381,670.768714 C912.129292,670.915349 912.138993,671.119613 912.138993,671.323878 L912.138993,675 L909.73048,675 C909.73048,675 909.761524,668.772812 909.73048,668.206762 L912.138993,668.206762 L912.138993,669.272908 C912.281279,668.806749 913.050917,668.141448 914.279104,668.141448 C915.802857,668.141448 917,669.118589 917,671.222706 L917,675 Z M907.294802,667.357047 L907.27928,667.357047 C906.503175,667.357047 906,666.837741 906,666.179484 C906,665.50842 906.51805,665 907.309678,665 C908.100659,665 908.587018,665.50714 908.60254,666.177563 C908.60254,666.83582 908.100659,667.357047 907.294802,667.357047 Z M906.277458,668.206762 L908.421449,668.206762 L908.421449,675 L906.277458,675 L906.277458,668.206762 Z" fill="#000000" id="circle-social-linkedin-glyph"/></g></g></svg>